<svg width="24" height="24" viewBox="0 0 24 24" fill="none" xmlns="http://www.w3.org/2000/svg">
<path d="M5.6981 22.9096V20.6065H10.3044V17.0366C9.36395 16.8255 8.52445 16.4274 7.78591 15.8424C7.04736 15.2574 6.50497 14.5231 6.15873 13.6395C4.71926 13.4667 3.5151 12.8383 2.54624 11.7543C1.57738 10.6703 1.09256 9.39858 1.0918 7.93915V4.48443H5.6981V2.18127H17.2139V4.48443H21.8202V7.93915C21.8202 9.39782 21.3353 10.6695 20.3657 11.7543C19.3961 12.8391 18.1919 13.4675 16.7532 13.6395C16.4078 14.5223 15.8657 15.2566 15.1272 15.8424C14.3887 16.4282 13.5488 16.8262 12.6076 17.0366V20.6065H17.2139V22.9096H5.6981ZM5.6981 11.1636V6.78758H3.39495V7.93915C3.39495 8.66848 3.60607 9.32604 4.02832 9.9118C4.45056 10.4976 5.00715 10.9148 5.6981 11.1636ZM17.2139 11.1636C17.9048 10.9141 18.4614 10.4964 18.8836 9.91065C19.3059 9.32488 19.517 8.66772 19.517 7.93915V6.78758H17.2139V11.1636Z" fill="white"/>
</svg>
