<svg width="50" height="50" viewBox="0 0 50 50" fill="none" xmlns="http://www.w3.org/2000/svg">
<rect width="50" height="50" rx="24.9672" fill="url(#paint0_linear_467_3638)"/>
<g clip-path="url(#clip0_467_3638)">
<circle cx="24.9997" cy="24.9831" r="21.5909" fill="url(#paint1_linear_467_3638)"/>
<path d="M21.2423 27.35H19.3271C19.1948 27.35 19.0679 27.4026 18.9744 27.4961C18.8809 27.5896 18.8283 27.7165 18.8283 27.8488V33.3351C18.8283 33.4673 18.7758 33.5942 18.6822 33.6877C18.5887 33.7813 18.4618 33.8338 18.3296 33.8338H14.3395C14.2073 33.8338 14.0804 33.7813 13.9869 33.6877C13.8933 33.5942 13.8408 33.4673 13.8408 33.3351V27.8488C13.8408 27.7165 13.7882 27.5896 13.6947 27.4961C13.6012 27.4026 13.4743 27.35 13.342 27.35H11.4288C11.3148 27.3527 11.2026 27.3208 11.1071 27.2585C11.0116 27.1961 10.9372 27.1063 10.8937 27.0009C10.8496 26.899 10.8372 26.7862 10.8581 26.6771C10.879 26.5681 10.9322 26.4678 11.0109 26.3894L15.9281 21.5316C16.0369 21.4249 16.1832 21.3651 16.3356 21.3651C16.4879 21.3651 16.6342 21.4249 16.743 21.5316L21.3221 26.0533V27.3401C21.2957 27.345 21.2691 27.3483 21.2423 27.35ZM27.3071 20.8662V33.3351C27.3071 33.4673 27.2546 33.5942 27.161 33.6877C27.0675 33.7813 26.9406 33.8338 26.8084 33.8338H22.8183C22.6861 33.8338 22.5592 33.7813 22.4657 33.6877C22.3721 33.5942 22.3196 33.4673 22.3196 33.3351V20.8662C22.3196 20.734 22.267 20.6071 22.1735 20.5136C22.08 20.42 21.9531 20.3675 21.8208 20.3675H19.9071C19.7932 20.37 19.6812 20.338 19.5858 20.2757C19.4903 20.2134 19.416 20.1237 19.3725 20.0184C19.3282 19.9162 19.3157 19.8031 19.3367 19.6937C19.3577 19.5844 19.4112 19.4839 19.4902 19.4054L24.4039 14.5485C24.5136 14.443 24.6599 14.3841 24.8121 14.3841C24.9643 14.3841 25.1106 14.443 25.2203 14.5485L30.1321 19.4034C30.2124 19.482 30.267 19.583 30.2888 19.6932C30.3106 19.8034 30.2986 19.9176 30.2543 20.0209C30.2107 20.1262 30.1364 20.2159 30.041 20.2782C29.9455 20.3405 29.8335 20.3725 29.7196 20.37H27.8059C27.674 20.37 27.5475 20.4222 27.4541 20.5152C27.3606 20.6082 27.3078 20.7344 27.3071 20.8662ZM38.7326 27.0009C38.6892 27.1063 38.615 27.196 38.5196 27.2583C38.4243 27.3207 38.3123 27.3526 38.1984 27.35H36.2847C36.1524 27.35 36.0255 27.4026 35.932 27.4961C35.8385 27.5896 35.7859 27.7165 35.7859 27.8488V33.3351C35.7859 33.4673 35.7334 33.5942 35.6398 33.6877C35.5463 33.7813 35.4194 33.8338 35.2872 33.8338H31.2971C31.1649 33.8338 31.038 33.7813 30.9445 33.6877C30.8509 33.5942 30.7984 33.4673 30.7984 33.3351V27.8488C30.7984 27.7165 30.7458 27.5896 30.6523 27.4961C30.5588 27.4026 30.4319 27.35 30.2996 27.35H28.3844C28.3577 27.3483 28.331 27.345 28.3046 27.3401V26.0533L32.8842 21.5306C32.9929 21.4241 33.139 21.3644 33.2912 21.3644C33.4433 21.3644 33.5894 21.4241 33.6981 21.5306L38.6109 26.3839C38.6912 26.4624 38.7459 26.5633 38.7676 26.6735C38.7893 26.7837 38.7771 26.8978 38.7326 27.0009Z" fill="white"/>
</g>
<defs>
<linearGradient id="paint0_linear_467_3638" x1="-61.6514" y1="-6.91418" x2="80.0892" y2="49.5516" gradientUnits="userSpaceOnUse">
<stop stop-color="#3F72FF"/>
<stop offset="0.49489" stop-color="#0036B2"/>
<stop offset="1" stop-color="#47B4B4"/>
</linearGradient>
<linearGradient id="paint1_linear_467_3638" x1="73.8678" y1="50.5557" x2="-10.0811" y2="6.09548" gradientUnits="userSpaceOnUse">
<stop stop-color="#3F72FF"/>
<stop offset="0.49489" stop-color="#0036B2"/>
<stop offset="1" stop-color="#47B4B4"/>
</linearGradient>
<clipPath id="clip0_467_3638">
<rect x="3.40877" y="3.39166" width="43.1818" height="43.1818" rx="21.5626" fill="white"/>
</clipPath>
</defs>
</svg>
