<svg width="16" height="16" viewBox="0 0 16 16" fill="none" xmlns="http://www.w3.org/2000/svg">
<path d="M8.60888 9.99984L10.546 7.99984M10.546 7.99984L8.60888 5.99984M10.546 7.99984H3.44336M3.44336 4.83184V4.79984C3.44336 4.05317 3.44336 3.67984 3.58412 3.3945C3.70809 3.14317 3.90503 2.93984 4.14845 2.81184C4.42481 2.6665 4.7864 2.6665 5.50957 2.6665H11.7082C12.4314 2.6665 12.793 2.6665 13.0687 2.81184C13.3121 2.93984 13.5097 3.14317 13.6336 3.3945C13.7744 3.67917 13.7744 4.0525 13.7744 4.79784V11.2025C13.7744 11.9478 13.7744 12.3205 13.6336 12.6052C13.5097 12.8561 13.3119 13.0601 13.0687 13.1878C12.793 13.3332 12.432 13.3332 11.7101 13.3332H5.50763C4.78575 13.3332 4.42416 13.3332 4.14845 13.1878C3.90548 13.06 3.70793 12.856 3.58412 12.6052C3.44336 12.3198 3.44336 11.9465 3.44336 11.1998V11.1665" stroke="white" stroke-width="1.37747" stroke-linecap="round" stroke-linejoin="round"/>
</svg>
