<svg width="32" height="32" viewBox="0 0 32 32" fill="none" xmlns="http://www.w3.org/2000/svg">
<path d="M15.1 17.8H7.9V23.2C7.9 23.6774 8.08964 24.1352 8.42721 24.4728C8.76477 24.8104 9.22261 25 9.7 25H22.3C22.7774 25 23.2352 24.8104 23.5728 24.4728C23.9104 24.1352 24.1 23.6774 24.1 23.2V17.8H16.9V19.6H15.1V17.8ZM15.1 16.9H7V11.5C7 10.51 7.81 9.7 8.8 9.7H12.4V8.8C12.4 8.32261 12.5896 7.86477 12.9272 7.52721C13.2648 7.18964 13.7226 7 14.2 7H17.8C18.2774 7 18.7352 7.18964 19.0728 7.52721C19.4104 7.86477 19.6 8.32261 19.6 8.8V9.7H23.2C23.6774 9.7 24.1352 9.88964 24.4728 10.2272C24.8104 10.5648 25 11.0226 25 11.5V16.9H16.9V15.1H15.1V16.9ZM17.8 9.7V8.8H14.2V9.7H17.8Z" fill="#C7C7C7"/>
</svg>
