<svg width="32" height="32" viewBox="0 0 32 32" fill="none" xmlns="http://www.w3.org/2000/svg">
<path fill-rule="evenodd" clip-rule="evenodd" d="M9.20502 18.3946C9.41687 18.8639 9.4574 19.3927 9.31955 19.8888C9.1817 20.3849 8.8742 20.817 8.4506 21.1097C8.027 21.4025 7.51414 21.5373 7.00132 21.4909C6.48851 21.4444 6.00824 21.2196 5.64414 20.8555C5.28004 20.4914 5.05519 20.0111 5.00873 19.4983C4.96228 18.9855 5.09716 18.4726 5.38991 18.049C5.68265 17.6254 6.1147 17.3179 6.61081 17.1801C7.10693 17.0422 7.63568 17.0827 8.10499 17.2946L10.6945 14.7051C10.5433 14.3701 10.4784 14.0025 10.5059 13.6359C10.5334 13.2693 10.6523 12.9154 10.8517 12.6066C11.0511 12.2978 11.3248 12.0439 11.6476 11.8681C11.9704 11.6923 12.3322 11.6002 12.6998 11.6002C13.0674 11.6002 13.4292 11.6923 13.752 11.8681C14.0748 12.0439 14.3485 12.2978 14.5479 12.6066C14.7473 12.9154 14.8662 13.2693 14.8937 13.6359C14.9212 14.0025 14.8563 14.3701 14.7051 14.7051L17.2946 17.2946C17.5791 17.1661 17.8877 17.0997 18.1999 17.0997C18.5121 17.0997 18.8207 17.1661 19.1052 17.2946L22.7947 13.6051C22.5829 13.1358 22.5423 12.6071 22.6802 12.1109C22.8181 11.6148 23.1256 11.1828 23.5492 10.89C23.9728 10.5973 24.4856 10.4624 24.9984 10.5089C25.5112 10.5553 25.9915 10.7802 26.3556 11.1443C26.7197 11.5084 26.9446 11.9886 26.991 12.5014C27.0375 13.0143 26.9026 13.5271 26.6098 13.9507C26.3171 14.3743 25.8851 14.6818 25.3889 14.8197C24.8928 14.9575 24.3641 14.917 23.8948 14.7051L20.2053 18.3946C20.3565 18.7297 20.4213 19.0973 20.3938 19.4639C20.3664 19.8305 20.2475 20.1843 20.048 20.4931C19.8486 20.8019 19.575 21.0558 19.2521 21.2316C18.9293 21.4074 18.5675 21.4996 18.1999 21.4996C17.8323 21.4996 17.4706 21.4074 17.1477 21.2316C16.8249 21.0558 16.5513 20.8019 16.3518 20.4931C16.1524 20.1843 16.0335 19.8305 16.006 19.4639C15.9786 19.0973 16.0434 18.7297 16.1946 18.3946L13.6051 15.8052C13.3206 15.9336 13.012 16.0001 12.6998 16.0001C12.3876 16.0001 12.079 15.9336 11.7945 15.8052L9.20502 18.3946Z" fill="#C7C7C7"/>
</svg>
