<svg width="44" height="44" viewBox="0 0 44 44" fill="none" xmlns="http://www.w3.org/2000/svg">
<rect width="44" height="44" rx="21.705" fill="url(#paint0_linear_467_3127)"/>
<circle cx="21.9998" cy="22.1803" r="19.25" fill="white" fill-opacity="0.16"/>
<path fill-rule="evenodd" clip-rule="evenodd" d="M16.5214 13.8439V15.571L14.461 15.7389C13.7531 15.7959 13.0848 16.0885 12.5629 16.5701C12.041 17.0517 11.6956 17.6943 11.582 18.3953C11.5317 18.7091 11.4855 19.0233 11.4433 19.338C11.4338 19.4141 11.4486 19.4912 11.4855 19.5585C11.5224 19.6258 11.5796 19.6797 11.6489 19.7126L11.7425 19.7564C18.3458 22.8823 26.2531 22.8823 32.8552 19.7564L32.9488 19.7126C33.0179 19.6795 33.0748 19.6255 33.1115 19.5582C33.1482 19.491 33.1628 19.4139 33.1532 19.338C33.1119 19.0231 33.0661 18.7088 33.0157 18.3953C32.9021 17.6943 32.5567 17.0517 32.0348 16.5701C31.5129 16.0885 30.8446 15.7959 30.1367 15.7389L28.0763 15.5723V13.8451C28.0764 13.3353 27.8936 12.8424 27.561 12.456C27.2284 12.0696 26.7682 11.8154 26.264 11.7397L24.7801 11.5171C23.1351 11.2712 21.4626 11.2712 19.8176 11.5171L18.3337 11.7397C17.8297 11.8154 17.3697 12.0694 17.0371 12.4555C16.7045 12.8417 16.5216 13.3343 16.5214 13.8439ZM24.5089 13.3209C23.0437 13.102 21.554 13.102 20.0888 13.3209L18.6049 13.5435C18.5329 13.5542 18.4672 13.5905 18.4196 13.6456C18.3721 13.7007 18.3459 13.7711 18.3458 13.8439V15.4433C20.979 15.2929 23.6187 15.2929 26.2519 15.4433V13.8439C26.2518 13.7711 26.2256 13.7007 26.1781 13.6456C26.1305 13.5905 26.0648 13.5542 25.9928 13.5435L24.5089 13.3209Z" fill="#E0E8FF"/>
<path d="M33.3898 21.8824C33.3874 21.8431 33.3755 21.8049 33.3551 21.7712C33.3346 21.7376 33.3063 21.7093 33.2726 21.689C33.2389 21.6686 33.2007 21.6568 33.1614 21.6545C33.122 21.6522 33.0827 21.6594 33.0468 21.6756C26.2708 24.6763 18.3283 24.6763 11.5522 21.6756C11.5163 21.6594 11.477 21.6522 11.4377 21.6545C11.3983 21.6568 11.3602 21.6686 11.3264 21.689C11.2927 21.7093 11.2644 21.7376 11.244 21.7712C11.2236 21.8049 11.2116 21.8431 11.2092 21.8824C11.086 24.211 11.2112 26.5461 11.5826 28.8482C11.696 29.5494 12.0413 30.1924 12.5632 30.6742C13.0851 31.156 13.7536 31.4488 14.4616 31.5059L16.7386 31.6883C20.4398 31.9875 24.158 31.9875 27.8605 31.6883L30.1374 31.5059C30.8454 31.4488 31.5139 31.156 32.0358 30.6742C32.5578 30.1924 32.903 29.5494 33.0164 28.8482C33.3886 26.5433 33.5151 24.208 33.3898 21.8836" fill="white"/>
<defs>
<linearGradient id="paint0_linear_467_3127" x1="-2.7317" y1="-4.61245e-07" x2="47.5681" y2="56.2036" gradientUnits="userSpaceOnUse">
<stop stop-color="#3F75FF"/>
<stop offset="1" stop-color="#000860"/>
</linearGradient>
</defs>
</svg>
