<svg width="28" height="28" viewBox="0 0 28 28" fill="none" xmlns="http://www.w3.org/2000/svg">
<rect width="28" height="28" rx="14" fill="url(#paint0_linear_467_3033)"/>
<circle cx="14" cy="14.1148" r="12.25" fill="white" fill-opacity="0.16"/>
<path d="M13.8665 19.9539L10.4476 18.2347L6.47122 17.4888C6.4567 17.5323 6.44885 17.5785 6.44885 17.6262V19.9539C6.44885 20.141 6.56855 20.307 6.74605 20.3662L13.7291 22.6938C13.7737 22.7087 13.8201 22.7162 13.8665 22.7162L14.446 21.1226L13.8665 19.9539Z" fill="white"/>
<path d="M13.8671 19.925V22.6873C13.9135 22.6873 13.96 22.6799 14.0046 22.665L20.9876 20.3373C21.165 20.2782 21.2848 20.1121 21.2848 19.925V17.5973C21.2848 17.5497 21.2769 17.5034 21.2624 17.4599L17.8966 18.0023L13.8671 19.925Z" fill="#8EB0FF"/>
<path d="M21.263 17.4889C21.2205 17.3616 21.1204 17.2581 20.9881 17.214L14.0051 14.8863C13.9159 14.8566 13.8194 14.8566 13.7303 14.8863L6.74724 17.214C6.61497 17.2581 6.51486 17.3616 6.47241 17.4889L13.8677 19.954L21.263 17.4889Z" fill="#E0E8FF"/>
<path d="M20.9877 17.214L14.0047 14.8863C13.9601 14.8715 13.9137 14.864 13.8672 14.864V19.954L21.2625 17.4889C21.2201 17.3616 21.12 17.2581 20.9877 17.214Z" fill="white"/>
<path d="M13.8665 15.2695L10.4476 13.5504L6.47122 12.8044C6.4567 12.848 6.44885 12.8942 6.44885 12.9419V15.2695C6.44885 15.4566 6.56855 15.6227 6.74605 15.6819L13.7291 18.0095C13.7737 18.0244 13.8201 18.0319 13.8665 18.0319L14.446 16.4383L13.8665 15.2695Z" fill="white"/>
<path d="M13.8671 15.2405V18.0028C13.9135 18.0028 13.96 17.9954 14.0046 17.9805L20.9876 15.6528C21.165 15.5937 21.2848 15.4276 21.2848 15.2405V12.9129C21.2848 12.8652 21.2769 12.819 21.2624 12.7755L17.8966 13.3178L13.8671 15.2405Z" fill="#8EB0FF"/>
<path d="M21.263 12.8045C21.2205 12.6772 21.1204 12.5737 20.9881 12.5296L14.0051 10.2019C13.9159 10.1722 13.8194 10.1722 13.7303 10.2019L6.74724 12.5296C6.61497 12.5737 6.51486 12.6772 6.47241 12.8045L13.8677 15.2696L21.263 12.8045Z" fill="#E0E8FF"/>
<path d="M20.9877 12.5296L14.0047 10.2019C13.9601 10.1871 13.9137 10.1796 13.8672 10.1796V15.2696L21.2625 12.8045C21.2201 12.6772 21.12 12.5737 20.9877 12.5296Z" fill="white"/>
<path d="M13.8667 10.2501L10.4478 8.53094L6.47147 7.78503C6.45695 7.82855 6.4491 7.8748 6.4491 7.92246V10.2501C6.4491 10.4372 6.56879 10.6033 6.7463 10.6624L13.7293 12.9901C13.7739 13.005 13.8203 13.0124 13.8667 13.0124L14.4463 11.4189L13.8667 10.2501Z" fill="white"/>
<path d="M13.8674 10.2211V12.9834C13.9138 12.9834 13.9602 12.976 14.0048 12.9611L20.9878 10.6334C21.1653 10.5743 21.285 10.4082 21.285 10.2211V7.89347C21.285 7.84581 21.2772 7.79956 21.2626 7.75604L17.8969 8.29843L13.8674 10.2211Z" fill="#8EB0FF"/>
<path d="M21.2632 7.78503C21.2208 7.65774 21.1207 7.55422 20.9884 7.51012L14.0054 5.18245C13.9161 5.15272 13.8197 5.15272 13.7305 5.18245L6.74749 7.51012C6.61521 7.55422 6.5151 7.65772 6.47266 7.78503L13.8679 10.2501L21.2632 7.78503Z" fill="#E0E8FF"/>
<path d="M20.9879 7.51013L14.0049 5.18247C13.9603 5.1676 13.9139 5.16016 13.8675 5.16016V10.2501L21.2628 7.78505C21.2203 7.65773 21.1202 7.5542 20.9879 7.51013Z" fill="white"/>
<defs>
<linearGradient id="paint0_linear_467_3033" x1="-1.73836" y1="-2.9352e-07" x2="30.2707" y2="35.766" gradientUnits="userSpaceOnUse">
<stop stop-color="#3F75FF"/>
<stop offset="1" stop-color="#000860"/>
</linearGradient>
</defs>
</svg>
