<svg width="32" height="32" viewBox="0 0 32 32" fill="none" xmlns="http://www.w3.org/2000/svg">
<path d="M23.6744 17.575C23.6744 17.396 23.6009 17.2243 23.4701 17.0977C23.3392 16.9711 23.1618 16.9 22.9767 16.9H20.186C20.001 16.9 19.8236 16.9711 19.6927 17.0977C19.5619 17.2243 19.4884 17.396 19.4884 17.575V23.65H18.093V9.025C18.093 8.3698 18.0912 7.945 18.0484 7.6336C18.0074 7.3411 17.9414 7.2493 17.8884 7.198C17.8353 7.1467 17.7405 7.0828 17.4381 7.0432C17.1153 7.0018 16.6772 7 16 7C15.3228 7 14.8837 7.0018 14.5619 7.0432C14.2595 7.0828 14.1647 7.1467 14.1116 7.198C14.0586 7.2493 13.9926 7.3411 13.9516 7.6336C13.9088 7.9459 13.907 8.3698 13.907 9.025V23.65H12.5116V13.075C12.5116 12.896 12.4381 12.7243 12.3073 12.5977C12.1764 12.4711 11.999 12.4 11.814 12.4H9.02326C8.83822 12.4 8.66076 12.4711 8.52993 12.5977C8.39909 12.7243 8.32558 12.896 8.32558 13.075V23.65H6.69767C6.51264 23.65 6.33518 23.7211 6.20434 23.8477C6.0735 23.9743 6 24.146 6 24.325C6 24.504 6.0735 24.6757 6.20434 24.8023C6.33518 24.9289 6.51264 25 6.69767 25H25.3023C25.4874 25 25.6648 24.9289 25.7957 24.8023C25.9265 24.6757 26 24.504 26 24.325C26 24.146 25.9265 23.9743 25.7957 23.8477C25.6648 23.7211 25.4874 23.65 25.3023 23.65H23.6744V17.575Z" fill="#C7C7C7"/>
</svg>
