<svg width="44" height="44" viewBox="0 0 44 44" fill="none" xmlns="http://www.w3.org/2000/svg">
<rect width="44" height="44" rx="21.705" fill="url(#paint0_linear_467_3156)"/>
<circle cx="21.9998" cy="22.1803" r="19.25" fill="white" fill-opacity="0.16"/>
<path d="M21.7922 23.2024L16.4196 20.5008L10.1711 19.3287C10.1482 19.3971 10.1359 19.4697 10.1359 19.5446V23.2024C10.1359 23.4964 10.324 23.7573 10.6029 23.8503L21.5762 27.5081C21.6463 27.5314 21.7193 27.5431 21.7922 27.5431L22.7029 25.0389L21.7922 23.2024Z" fill="white"/>
<path d="M21.7922 23.1569V27.4976C21.8651 27.4976 21.9381 27.4859 22.0082 27.4625L32.9815 23.8048C33.2603 23.7119 33.4485 23.4509 33.4485 23.1569V19.4991C33.4485 19.4242 33.4361 19.3515 33.4133 19.2832L28.1243 20.1355L21.7922 23.1569Z" fill="#8EB0FF"/>
<path d="M33.4137 19.3287C33.347 19.1286 33.1897 18.9659 32.9818 18.8966L22.0085 15.2389C21.8683 15.1922 21.7167 15.1922 21.5766 15.2389L10.6033 18.8966C10.3954 18.9659 10.2381 19.1286 10.1714 19.3287L21.7926 23.2024L33.4137 19.3287Z" fill="#E0E8FF"/>
<path d="M32.9815 18.8967L22.0082 15.2389C21.9381 15.2156 21.8651 15.2039 21.7922 15.2039V23.2024L33.4133 19.3287C33.3466 19.1287 33.1893 18.966 32.9815 18.8967Z" fill="white"/>
<defs>
<linearGradient id="paint0_linear_467_3156" x1="-2.7317" y1="-4.61245e-07" x2="47.5681" y2="56.2036" gradientUnits="userSpaceOnUse">
<stop stop-color="#3F75FF"/>
<stop offset="1" stop-color="#000860"/>
</linearGradient>
</defs>
</svg>
