<svg width="32" height="32" viewBox="0 0 32 32" fill="none" xmlns="http://www.w3.org/2000/svg">
<path d="M8 17H14C14.55 17 15 16.55 15 16V8C15 7.45 14.55 7 14 7H8C7.45 7 7 7.45 7 8V16C7 16.55 7.45 17 8 17ZM8 25H14C14.55 25 15 24.55 15 24V20C15 19.45 14.55 19 14 19H8C7.45 19 7 19.45 7 20V24C7 24.55 7.45 25 8 25ZM18 25H24C24.55 25 25 24.55 25 24V16C25 15.45 24.55 15 24 15H18C17.45 15 17 15.45 17 16V24C17 24.55 17.45 25 18 25ZM17 8V12C17 12.55 17.45 13 18 13H24C24.55 13 25 12.55 25 12V8C25 7.45 24.55 7 24 7H18C17.45 7 17 7.45 17 8Z" fill="white"/>
</svg>
