<svg width="44" height="44" viewBox="0 0 44 44" fill="none" xmlns="http://www.w3.org/2000/svg">
<rect width="44" height="44" rx="21.705" fill="url(#paint0_linear_0_217)"/>
<circle cx="21.9998" cy="22.1803" r="19.25" fill="white" fill-opacity="0.16"/>
<path d="M21.7922 27.3017L16.4196 24.6001L10.1711 23.428C10.1482 23.4963 10.1359 23.569 10.1359 23.6439V27.3017C10.1359 27.5957 10.324 27.8566 10.6029 27.9496L21.5762 31.6074C21.6463 31.6307 21.7193 31.6424 21.7922 31.6424L22.7029 29.1382L21.7922 27.3017Z" fill="white"/>
<path d="M21.7922 27.2561V31.5969C21.8651 31.5969 21.9381 31.5852 22.0082 31.5618L32.9815 27.9041C33.2603 27.8111 33.4485 27.5501 33.4485 27.2561V23.5984C33.4485 23.5235 33.4361 23.4508 33.4133 23.3824L28.1243 24.2347L21.7922 27.2561Z" fill="#8EB0FF"/>
<path d="M33.4137 23.4279C33.347 23.2279 33.1897 23.0652 32.9818 22.9959L22.0085 19.3382C21.8683 19.2915 21.7167 19.2915 21.5766 19.3382L10.6033 22.9959C10.3954 23.0652 10.2381 23.2279 10.1714 23.4279L21.7926 27.3016L33.4137 23.4279Z" fill="#E0E8FF"/>
<path d="M32.9815 22.9959L22.0082 19.3382C21.9381 19.3148 21.8651 19.3031 21.7922 19.3031V27.3017L33.4133 23.428C33.3466 23.2279 33.1893 23.0652 32.9815 22.9959Z" fill="white"/>
<path d="M21.7922 19.9406L16.4196 17.239L10.1711 16.0669C10.1482 16.1353 10.1359 16.2079 10.1359 16.2828V19.9406C10.1359 20.2346 10.324 20.4955 10.6029 20.5885L21.5762 24.2463C21.6463 24.2697 21.7193 24.2814 21.7922 24.2814L22.7029 21.7772L21.7922 19.9406Z" fill="white"/>
<path d="M21.7922 19.8951V24.2358C21.8651 24.2358 21.9381 24.2241 22.0082 24.2007L32.9815 20.5429C33.2603 20.45 33.4485 20.189 33.4485 19.895V16.2373C33.4485 16.1624 33.4361 16.0897 33.4133 16.0213L28.1243 16.8737L21.7922 19.8951Z" fill="#8EB0FF"/>
<path d="M33.4137 16.0668C33.347 15.8668 33.1897 15.7041 32.9818 15.6348L22.0085 11.977C21.8683 11.9303 21.7167 11.9303 21.5766 11.977L10.6033 15.6348C10.3954 15.7041 10.2381 15.8667 10.1714 16.0668L21.7926 19.9405L33.4137 16.0668Z" fill="#E0E8FF"/>
<path d="M32.9815 15.6348L22.0082 11.977C21.9381 11.9537 21.8651 11.942 21.7922 11.942V19.9405L33.4133 16.0668C33.3466 15.8667 33.1893 15.7041 32.9815 15.6348Z" fill="white"/>
<defs>
<linearGradient id="paint0_linear_0_217" x1="-2.7317" y1="-4.61245e-07" x2="47.5681" y2="56.2036" gradientUnits="userSpaceOnUse">
<stop stop-color="#3F75FF"/>
<stop offset="1" stop-color="#000860"/>
</linearGradient>
</defs>
</svg>
