<svg width="28" height="28" viewBox="0 0 28 28" fill="none" xmlns="http://www.w3.org/2000/svg">
<rect width="28" height="28" rx="14" fill="url(#paint0_linear_467_3007)"/>
<circle cx="14.002" cy="14.1148" r="12.25" fill="white" fill-opacity="0.16"/>
<g clip-path="url(#clip0_467_3007)">
<path d="M13.8685 17.3739L10.4495 15.6547L6.47317 14.9088C6.45866 14.9523 6.45081 14.9986 6.45081 15.0462V17.3739C6.45081 17.561 6.5705 17.7271 6.748 17.7862L13.731 20.1139C13.7756 20.1287 13.822 20.1362 13.8685 20.1362L14.448 18.5426L13.8685 17.3739Z" fill="white"/>
<path d="M13.8688 17.3449V20.1072C13.9153 20.1072 13.9617 20.0998 14.0063 20.0849L20.9893 17.7572C21.1668 17.6981 21.2865 17.532 21.2865 17.3449V15.0173C21.2865 14.9696 21.2786 14.9233 21.2641 14.8798L17.8984 15.4222L13.8688 17.3449Z" fill="#8EB0FF"/>
<path d="M21.2629 14.9088C21.2205 14.7815 21.1203 14.6779 20.9881 14.6338L14.0051 12.3062C13.9158 12.2764 13.8194 12.2764 13.7302 12.3062L6.74718 14.6338C6.61491 14.6779 6.5148 14.7814 6.47235 14.9088L13.8676 17.3738L21.2629 14.9088Z" fill="#E0E8FF"/>
<path d="M20.9894 14.6338L14.0064 12.3062C13.9618 12.2913 13.9154 12.2839 13.869 12.2839V17.3739L21.2642 14.9088C21.2218 14.7815 21.1217 14.6779 20.9894 14.6338Z" fill="white"/>
<path d="M13.8684 12.6896L10.4495 10.9704L6.47311 10.2245C6.4586 10.268 6.45074 10.3143 6.45074 10.3619V12.6896C6.45074 12.8767 6.57044 13.0427 6.74794 13.1019L13.731 15.4296C13.7756 15.4445 13.822 15.4519 13.8684 15.4519L14.4479 13.8583L13.8684 12.6896Z" fill="white"/>
<path d="M13.8688 12.6606V15.4229C13.9152 15.4229 13.9616 15.4155 14.0062 15.4006L20.9892 13.0729C21.1667 13.0137 21.2864 12.8477 21.2864 12.6606V10.3329C21.2864 10.2853 21.2786 10.239 21.2641 10.1955L17.8983 10.7379L13.8688 12.6606Z" fill="#8EB0FF"/>
<path d="M21.2628 10.2244C21.2204 10.0971 21.1203 9.99361 20.988 9.94951L14.005 7.62184C13.9158 7.59212 13.8193 7.59212 13.7301 7.62184L6.74712 9.94951C6.61485 9.99361 6.51474 10.0971 6.47229 10.2244L13.8676 12.6895L21.2628 10.2244Z" fill="#E0E8FF"/>
<path d="M20.9893 9.94952L14.0063 7.62186C13.9617 7.60699 13.9153 7.59955 13.8689 7.59955V12.6895L21.2642 10.2244C21.2217 10.0971 21.1216 9.99359 20.9893 9.94952Z" fill="white"/>
</g>
<defs>
<linearGradient id="paint0_linear_467_3007" x1="-1.73836" y1="-2.9352e-07" x2="30.2707" y2="35.766" gradientUnits="userSpaceOnUse">
<stop stop-color="#3F75FF"/>
<stop offset="1" stop-color="#000860"/>
</linearGradient>
<clipPath id="clip0_467_3007">
<rect width="14.8353" height="14.8353" fill="white" transform="translate(6.45111 6.45013)"/>
</clipPath>
</defs>
</svg>
