<svg width="20" height="20" viewBox="0 0 20 20" fill="none" xmlns="http://www.w3.org/2000/svg">
<path d="M16.668 3.33325H3.33464C2.41797 3.33325 1.6763 4.08325 1.6763 4.99992L1.66797 14.9999C1.66797 15.9166 2.41797 16.6666 3.33464 16.6666H16.668C17.5846 16.6666 18.3346 15.9166 18.3346 14.9999V4.99992C18.3346 4.08325 17.5846 3.33325 16.668 3.33325ZM16.3346 6.87492L10.443 10.5583C10.1763 10.7249 9.8263 10.7249 9.55964 10.5583L3.66797 6.87492C3.58441 6.82801 3.51123 6.76464 3.45288 6.68863C3.39452 6.61262 3.35219 6.52557 3.32845 6.43273C3.30471 6.33989 3.30005 6.2432 3.31477 6.14851C3.32948 6.05382 3.36325 5.9631 3.41404 5.88184C3.46482 5.80058 3.53157 5.73046 3.61024 5.67575C3.68891 5.62103 3.77786 5.58284 3.87171 5.5635C3.96557 5.54416 4.06237 5.54406 4.15626 5.56321C4.25016 5.58236 4.33919 5.62036 4.41797 5.67492L10.0013 9.16658L15.5846 5.67492C15.6634 5.62036 15.7524 5.58236 15.8463 5.56321C15.9402 5.54406 16.037 5.54416 16.1309 5.5635C16.2247 5.58284 16.3137 5.62103 16.3924 5.67575C16.471 5.73046 16.5378 5.80058 16.5886 5.88184C16.6394 5.9631 16.6731 6.05382 16.6878 6.14851C16.7025 6.2432 16.6979 6.33989 16.6742 6.43273C16.6504 6.52557 16.6081 6.61262 16.5497 6.68863C16.4914 6.76464 16.4182 6.82801 16.3346 6.87492Z" fill="white"/>
</svg>
