<svg width="24" height="24" viewBox="0 0 24 24" fill="none" xmlns="http://www.w3.org/2000/svg">
<path d="M4.00195 13.0004H10.002C10.552 13.0004 11.002 12.5504 11.002 12.0004V4.00037C11.002 3.45037 10.552 3.00037 10.002 3.00037H4.00195C3.45195 3.00037 3.00195 3.45037 3.00195 4.00037V12.0004C3.00195 12.5504 3.45195 13.0004 4.00195 13.0004ZM4.00195 21.0004H10.002C10.552 21.0004 11.002 20.5504 11.002 20.0004V16.0004C11.002 15.4504 10.552 15.0004 10.002 15.0004H4.00195C3.45195 15.0004 3.00195 15.4504 3.00195 16.0004V20.0004C3.00195 20.5504 3.45195 21.0004 4.00195 21.0004ZM14.002 21.0004H20.002C20.552 21.0004 21.002 20.5504 21.002 20.0004V12.0004C21.002 11.4504 20.552 11.0004 20.002 11.0004H14.002C13.452 11.0004 13.002 11.4504 13.002 12.0004V20.0004C13.002 20.5504 13.452 21.0004 14.002 21.0004ZM13.002 4.00037V8.00037C13.002 8.55037 13.452 9.00037 14.002 9.00037H20.002C20.552 9.00037 21.002 8.55037 21.002 8.00037V4.00037C21.002 3.45037 20.552 3.00037 20.002 3.00037H14.002C13.452 3.00037 13.002 3.45037 13.002 4.00037Z" fill="white"/>
</svg>
