<svg width="9" height="9" viewBox="0 0 9 9" fill="none" xmlns="http://www.w3.org/2000/svg">
<path fill-rule="evenodd" clip-rule="evenodd" d="M5.70263 3.29731C5.84908 3.44375 5.84908 3.68119 5.70263 3.82764L3.82764 5.70263C3.68119 5.84908 3.44375 5.84908 3.29731 5.70263C3.15086 5.55619 3.15086 5.31875 3.29731 5.1723L5.1723 3.29731C5.31875 3.15086 5.55619 3.15086 5.70263 3.29731Z" fill="#22D606"/>
<path fill-rule="evenodd" clip-rule="evenodd" d="M4.23488 1.43887C5.1534 0.520344 6.64262 0.520344 7.56114 1.43887C8.47967 2.35739 8.47967 3.84661 7.56114 4.76513L6.58257 5.74371C6.43612 5.89016 6.19868 5.89016 6.05224 5.74371C5.90579 5.59726 5.90579 5.35983 6.05224 5.21338L7.03082 4.2348C7.65645 3.60917 7.65645 2.59483 7.03082 1.9692C6.40519 1.34357 5.39084 1.34357 4.76521 1.9692L3.78663 2.94777C3.64018 3.09422 3.40275 3.09422 3.2563 2.94777C3.10986 2.80133 3.10986 2.56389 3.2563 2.41744L4.23488 1.43887ZM2.94785 3.25623C3.0943 3.40267 3.0943 3.64011 2.94785 3.78655L1.96927 4.76513C1.34364 5.39076 1.34364 6.40511 1.96927 7.03074C2.5949 7.65637 3.60925 7.65637 4.23488 7.03074L5.21346 6.05216C5.3599 5.90572 5.59734 5.90572 5.74379 6.05216C5.89023 6.19861 5.89023 6.43604 5.74379 6.58249L4.76521 7.56107C3.84669 8.47959 2.35747 8.47959 1.43894 7.56107C0.52042 6.64255 0.52042 5.15333 1.43894 4.2348L2.41752 3.25623C2.56397 3.10978 2.8014 3.10978 2.94785 3.25623Z" fill="#22D606"/>
</svg>
