<svg width="40" height="40" viewBox="0 0 40 40" fill="none" xmlns="http://www.w3.org/2000/svg">
<rect width="40" height="39.8817" rx="6" fill="#1F1F1F"/>
<path d="M16.8587 30.4182L16.4349 27.0114C16.2054 26.9227 15.9893 26.8162 15.7866 26.692C15.5839 26.5678 15.3851 26.4347 15.1902 26.2928L12.0387 27.6236L9.12547 22.5665L11.8533 20.4905C11.8356 20.3663 11.8268 20.2467 11.8268 20.1317V19.4131C11.8268 19.2974 11.8356 19.1774 11.8533 19.0532L9.12547 16.9772L12.0387 11.9201L15.1902 13.2509C15.3844 13.109 15.5875 12.9759 15.7993 12.8517C16.0112 12.7275 16.2231 12.621 16.4349 12.5323L16.8587 9.12547H22.685L23.1088 12.5323C23.3383 12.621 23.5548 12.7275 23.7582 12.8517C23.9616 12.9759 24.16 13.109 24.3535 13.2509L27.5051 11.9201L30.4182 16.9772L27.6904 19.0532C27.7081 19.1774 27.7169 19.2974 27.7169 19.4131V20.1306C27.7169 20.2463 27.6993 20.3663 27.664 20.4905L30.3918 22.5665L27.4786 27.6236L24.3535 26.2928C24.1593 26.4347 23.9563 26.5678 23.7444 26.692C23.5325 26.8162 23.3207 26.9227 23.1088 27.0114L22.685 30.4182H16.8587ZM19.8248 23.4981C20.8489 23.4981 21.7228 23.1343 22.4467 22.4068C23.1706 21.6793 23.5325 20.801 23.5325 19.7719C23.5325 18.7427 23.1706 17.8644 22.4467 17.1369C21.7228 16.4094 20.8489 16.0456 19.8248 16.0456C18.7831 16.0456 17.9046 16.4094 17.1892 17.1369C16.4738 17.8644 16.1164 18.7427 16.1171 19.7719C16.1178 20.801 16.4755 21.6793 17.1902 22.4068C17.9049 23.1343 18.7831 23.4981 19.8248 23.4981Z" fill="white" fill-opacity="0.24"/>
</svg>
