<svg width="12" height="12" viewBox="0 0 12 12" fill="none" xmlns="http://www.w3.org/2000/svg">
<path d="M6.00097 10.8662C4.64249 10.8662 3.49183 10.3948 2.54901 9.45196C1.60618 8.50913 1.13477 7.35848 1.13477 6C1.13477 4.64151 1.60618 3.49086 2.54901 2.54803C3.49183 1.6052 4.64249 1.13379 6.00097 1.13379C6.70049 1.13379 7.36959 1.27816 8.00828 1.56688C8.64697 1.85561 9.19442 2.26883 9.65062 2.80655V1.74207C9.65062 1.56972 9.70902 1.42536 9.8258 1.30897C9.94259 1.19259 10.087 1.1342 10.2589 1.13379C10.4308 1.13339 10.5754 1.19178 10.6926 1.30897C10.8098 1.42617 10.868 1.57053 10.8672 1.74207V4.78344C10.8672 4.95579 10.8088 5.10036 10.692 5.21714C10.5752 5.33393 10.4308 5.39213 10.2589 5.39172H7.21752C7.04518 5.39172 6.90081 5.33332 6.78443 5.21654C6.66804 5.09975 6.60965 4.95538 6.60924 4.78344C6.60884 4.6115 6.66723 4.46714 6.78443 4.35035C6.90162 4.23356 7.04599 4.17517 7.21752 4.17517H9.164C8.83959 3.60744 8.39615 3.16138 7.8337 2.83696C7.27125 2.51255 6.66034 2.35034 6.00097 2.35034C4.98718 2.35034 4.12545 2.70517 3.4158 3.41482C2.70614 4.12448 2.35132 4.9862 2.35132 6C2.35132 7.01379 2.70614 7.87551 3.4158 8.58517C4.12545 9.29482 4.98718 9.64965 6.00097 9.64965C6.69035 9.64965 7.32153 9.47487 7.89453 9.12531C8.46753 8.77576 8.91096 8.30678 9.22483 7.71837C9.30593 7.57644 9.42009 7.4777 9.56729 7.42214C9.71449 7.36659 9.86392 7.36395 10.0156 7.41424C10.1778 7.46493 10.2944 7.57137 10.3653 7.73358C10.4363 7.89579 10.4312 8.04786 10.3501 8.18979C9.93448 9.00082 9.34142 9.64965 8.57093 10.1363C7.80045 10.6229 6.9438 10.8662 6.00097 10.8662Z" fill="#DCDCDC"/>
</svg>
