<svg width="30" height="31" viewBox="0 0 30 31" fill="none" xmlns="http://www.w3.org/2000/svg">
<g clip-path="url(#clip0_0_202)">
<path d="M3.30667 0.619995H26.4533C27.3303 0.619995 28.1714 0.968375 28.7915 1.5885C29.4116 2.20862 29.76 3.04968 29.76 3.92666V27.0733C29.76 27.9496 29.4128 28.7928 28.7845 29.4045C28.1728 30.0328 27.3296 30.38 26.4533 30.38H3.30667C2.4304 30.38 1.5872 30.0328 0.975466 29.4045C0.3472 28.7928 0 27.9496 0 27.0733V3.92666C0 2.09146 1.47147 0.619995 3.30667 0.619995ZM14.88 23.7667L17.4592 18.1123L23.1467 15.5L17.4592 12.9208L14.88 7.23333L12.2843 12.9208L6.61333 15.5L12.2843 18.1123L14.88 23.7667Z" fill="#EDF1FF"/>
</g>
<defs>
<clipPath id="clip0_0_202">
<rect width="29.76" height="31" fill="white"/>
</clipPath>
</defs>
</svg>
