<svg width="12" height="12" viewBox="0 0 12 12" fill="none" xmlns="http://www.w3.org/2000/svg">
<path fill-rule="evenodd" clip-rule="evenodd" d="M10.4994 9.5C10.6269 9.50014 10.7495 9.54894 10.8421 9.63642C10.9348 9.72391 10.9906 9.84348 10.998 9.9707C11.0055 10.0979 10.9641 10.2232 10.8823 10.3209C10.8005 10.4186 10.6845 10.4814 10.5579 10.4965L10.4994 10.5H1.49945C1.37201 10.4999 1.24943 10.4511 1.15676 10.3636C1.06409 10.2761 1.00833 10.1565 1.00086 10.0293C0.993391 9.90208 1.03478 9.77681 1.11658 9.67908C1.19837 9.58136 1.3144 9.51855 1.44095 9.5035L1.49945 9.5H10.4994ZM9.49945 2C9.75173 1.99992 9.99473 2.0952 10.1797 2.26675C10.3647 2.43829 10.478 2.67342 10.4969 2.925L10.4994 3V8C10.4995 8.25229 10.4042 8.49528 10.2327 8.68027C10.0612 8.86526 9.82602 8.97858 9.57445 8.9975L9.49945 9H2.49945C2.24716 9.00008 2.00416 8.9048 1.81917 8.73325C1.63418 8.56171 1.52087 8.32658 1.50195 8.075L1.49945 8V3C1.49937 2.74771 1.59465 2.50472 1.76619 2.31973C1.93774 2.13474 2.17287 2.02142 2.42445 2.0025L2.49945 2H9.49945ZM9.49945 3H2.49945V8H9.49945V3Z" fill="white"/>
</svg>
