<svg width="40" height="41" viewBox="0 0 40 41" fill="none" xmlns="http://www.w3.org/2000/svg">
<rect y="5" width="36" height="36" rx="7" fill="#2B2B2B"/>
<path d="M16.5358 27.0839L16.5263 27.0609C16.3826 27.0205 16.2402 26.9755 16.0991 26.9262L16.0885 26.9219C14.6206 26.4043 13.3465 25.4267 12.4446 24.1258C11.5426 22.825 11.0579 21.266 11.0583 19.6672C11.0578 17.705 11.7876 15.8173 13.0972 14.393C14.4068 12.9687 16.1965 12.1161 18.0978 12.011C19.9991 11.9059 21.867 12.5562 23.317 13.8279C24.767 15.0997 25.6885 16.896 25.8917 18.847C25.9385 19.2982 25.5772 19.6672 25.1373 19.6672C24.6974 19.6672 24.3457 19.2971 24.2873 18.8481C24.1459 17.7884 23.7333 16.7866 23.0919 15.9457C22.4505 15.1047 21.6033 14.4549 20.6375 14.0631C19.6717 13.6713 18.622 13.5517 17.5965 13.7164C16.5709 13.8811 15.6064 14.3243 14.8021 15.0003C13.9977 15.6764 13.3826 16.561 13.0199 17.5633C12.6572 18.5655 12.5599 19.6492 12.7382 20.703C12.9165 21.7567 13.3638 22.7426 14.0342 23.5592C14.7046 24.3758 15.574 24.9937 16.5528 25.3494C16.75 24.89 17.0944 24.5145 17.5283 24.2857C17.9622 24.057 18.4593 23.9888 18.9361 24.0928C19.4129 24.1968 19.8406 24.4665 20.1474 24.8567C20.4543 25.247 20.6216 25.7341 20.6214 26.2364C20.6214 26.8912 20.343 27.4782 19.9021 27.8789C19.514 28.2322 19.0141 28.4273 18.4963 28.4276C18.0771 28.4291 17.6669 28.3022 17.3178 28.0629C16.9688 27.8237 16.6966 27.4829 16.5358 27.0839ZM14.2428 27.88C13.4597 27.4488 12.7425 26.9008 12.1145 26.2539C11.5324 26.3237 10.9954 26.6114 10.6056 27.0624C10.2157 27.5134 10.0002 28.0962 10 28.7002V29.3332C10 30.3099 10.3379 31.256 10.9542 31.9996C12.6182 34.0079 15.1534 35 18.4963 35C21.8391 35 24.3755 34.0079 26.0426 31.9996C26.6604 31.2558 26.9999 30.3089 27 29.3299V28.7002C27 28.0471 26.7484 27.4208 26.3005 26.9588C25.8526 26.4968 25.2451 26.237 24.6114 26.2364H22.2153C22.2153 26.8255 22.0878 27.3818 21.8572 27.8789H24.6114C24.8223 27.8795 25.0245 27.9663 25.1735 28.1203C25.3225 28.2742 25.4062 28.4828 25.4062 28.7002V29.3299C25.4063 29.9173 25.2028 30.4855 24.8324 30.9319C23.4967 32.5394 21.4067 33.3563 18.4963 33.3563C15.5859 33.3563 13.498 32.5394 12.1666 30.933C11.7963 30.4868 11.5929 29.9191 11.5928 29.3321V28.7002C11.5928 28.4824 11.6767 28.2735 11.8262 28.1195C11.9757 27.9655 12.1784 27.8789 12.3897 27.8789L14.2428 27.88ZM14.246 19.6672C14.2462 18.9117 14.436 18.1691 14.797 17.5115C15.158 16.8539 15.6779 16.3037 16.3062 15.9144C16.9345 15.5251 17.6499 15.31 18.3827 15.2898C19.1156 15.2696 19.841 15.4451 20.4886 15.7993C21.1362 16.1534 21.6839 16.6742 22.0785 17.3109C22.473 17.9477 22.7011 18.6788 22.7404 19.4333C22.7798 20.1877 22.6291 20.9398 22.303 21.6165C21.977 22.2932 21.4866 22.8714 20.8796 23.2951C20.2109 22.7198 19.3674 22.4048 18.4963 22.4048C19.2008 22.4048 19.8765 22.1164 20.3747 21.603C20.8728 21.0896 21.1527 20.3933 21.1527 19.6672C21.1527 18.9412 20.8728 18.2448 20.3747 17.7314C19.8765 17.218 19.2008 16.9296 18.4963 16.9296C17.7918 16.9296 17.1161 17.218 16.6179 17.7314C16.1197 18.2448 15.8399 18.9412 15.8399 19.6672C15.8399 20.3933 16.1197 21.0896 16.6179 21.603C17.1161 22.1164 17.7918 22.4048 18.4963 22.4048C17.5888 22.4048 16.7579 22.7399 16.114 23.2951C15.538 22.8945 15.0663 22.3541 14.7406 21.7214C14.4149 21.0888 14.245 20.3834 14.246 19.6672Z" fill="white"/>
</svg>
