<svg width="95" height="25" viewBox="0 0 95 25" fill="none" xmlns="http://www.w3.org/2000/svg">
<g clip-path="url(#clip0_0_88)">
<path fill-rule="evenodd" clip-rule="evenodd" d="M7.24926 18.6405C11.4495 18.6405 13.4261 16.6902 13.4261 13.9172C13.4261 11.6383 12.1355 9.93511 7.63301 9.11241C3.76131 8.45267 2.93861 7.43809 2.93861 5.98193C2.93861 4.33389 4.31066 3.31931 6.50804 3.31931C9.33625 3.31931 10.4349 4.80175 10.9843 7.35398L12.9346 6.97022C12.2749 3.86866 10.6005 1.56088 6.59215 1.56088C2.9938 1.56351 0.933099 3.37714 0.933099 6.03975C0.933099 8.4001 2.41554 10.1033 6.91808 10.8708C10.2404 11.4202 11.4206 12.2718 11.4206 14.0013C11.4206 15.7308 10.0486 16.8558 7.33074 16.8558C4.17397 16.8558 2.38926 15.1 1.9214 12.2429L0 12.6266C0.438951 16.0857 2.66262 18.5853 7.24926 18.6405ZM62.9592 18.8061C66.116 18.8061 68.0111 17.2422 68.6708 14.6322L66.9676 14.138C66.4997 15.786 65.4852 17.1029 62.9592 17.1029C60.2125 17.1029 58.5934 15.4838 58.3752 12.7108H68.6971C68.7234 12.1903 68.7523 11.6962 68.7523 11.365C68.7523 7.82447 66.639 5.43521 62.904 5.43521C59.169 5.43521 56.4801 7.96115 56.4801 12.1614C56.4801 16.3617 59.006 18.8061 62.9592 18.8061ZM58.4304 11.1468C58.7327 8.48421 60.3518 7.11216 62.8514 7.11216C65.4878 7.11216 66.8335 8.5946 66.9702 11.1468H58.433H58.4304ZM45.3907 1.50831H47.2858V11.1731H47.4225L53.6282 5.57189H56.0175V5.62709L48.9627 11.9143L56.5405 18.2831V18.3383H54.0961L47.4251 12.6818H47.2884V18.3383H45.3933V1.50831H45.3907ZM37.1242 18.1753C36.0807 20.5908 35.1187 20.9483 33.61 20.9483C33.0606 20.9483 32.5665 20.8668 31.9908 20.7564L31.7175 22.5674C32.2379 22.6489 32.7873 22.733 33.5837 22.733C36.0281 22.733 37.5658 21.4977 38.8563 18.5039L44.4024 5.57189H42.3706L40.6121 10.1296C39.9524 11.8039 38.9378 14.2747 38.1414 16.3617C37.2635 14.3562 36.1648 11.7487 35.4788 10.0744L33.6126 5.57189H31.4993L37.1268 18.1727L37.1242 18.1753ZM25.701 5.57189H23.8059V18.3383H25.701V11.3361C25.701 8.67346 26.91 7.62996 29.4623 7.62996H30.5058V5.57189H29.6279C27.5146 5.57189 26.224 6.67058 25.7562 9.278H25.701V5.57189ZM14.417 7.24884H16.4751V14.6059C16.4751 16.9951 17.629 18.6405 20.1812 18.6405C21.251 18.6405 21.937 18.4749 22.8176 18.2279L22.5442 16.4983C21.803 16.7191 21.2536 16.8269 20.5124 16.8269C18.9748 16.8269 18.3702 16.0042 18.3702 14.4376V7.24358H22.6809V5.56926H18.3702V1.92097H16.4751V5.57189H14.417V7.24621V7.24884Z" fill="white"/>
<path fill-rule="evenodd" clip-rule="evenodd" d="M72.7709 22.2945H76.1248L78.4536 17.608L70.3054 1.41148L69.5957 0H71.1728H76.7871H77.3785L77.6519 0.533575L80.601 6.29776L78.7611 10.0643L78.4325 6.35296L76.1957 1.94768H72.7498L79.5339 15.4343L86.9277 0.544089L87.1958 0H87.7977H93.3096H94.8656L94.1822 1.39833L89.9031 10.1458L88.8097 7.96946L91.7535 1.94768H88.3996L86.1365 6.50015L94.29 22.7019L94.9997 24.1134H93.4226H87.8056H87.2142L86.9435 23.5798L84.0075 17.7999L85.8316 14.0438L86.197 17.8235L88.397 22.1657H91.8455L85.0589 8.67651L77.5967 23.6981L77.3286 24.2422H76.7267H71.2148H69.6588L70.3422 22.8438L74.6213 14.0964L75.7147 16.2727L72.7709 22.2945Z" fill="#4079FF"/>
</g>
<defs>
<clipPath id="clip0_0_88">
<rect width="95" height="24.2422" fill="white"/>
</clipPath>
</defs>
</svg>
