<svg width="12" height="6" viewBox="0 0 12 6" fill="none" xmlns="http://www.w3.org/2000/svg">
<path fill-rule="evenodd" clip-rule="evenodd" d="M2.29376 4.30619C2.40931 4.56217 2.43142 4.85058 2.35623 5.12119C2.28104 5.39179 2.11331 5.62745 1.88226 5.78713C1.65121 5.94681 1.37147 6.02038 1.09175 5.99504C0.812041 5.9697 0.550076 5.84706 0.351478 5.64846C0.152881 5.44986 0.0302343 5.1879 0.00489556 4.90818C-0.0204432 4.62847 0.0531315 4.34873 0.212807 4.11768C0.372483 3.88662 0.608144 3.7189 0.878751 3.64371C1.14936 3.56852 1.43777 3.59062 1.69375 3.70618L3.10617 2.29376C3.0237 2.11099 2.98834 1.91048 3.00332 1.71053C3.01831 1.51058 3.08315 1.31757 3.19194 1.14913C3.30072 0.9807 3.44998 0.842209 3.62607 0.746314C3.80216 0.650418 3.99947 0.600175 4.19998 0.600175C4.4005 0.600175 4.59781 0.650418 4.7739 0.746314C4.94999 0.842209 5.09925 0.9807 5.20803 1.14913C5.31682 1.31757 5.38166 1.51058 5.39665 1.71053C5.41163 1.91048 5.37627 2.11099 5.2938 2.29376L6.70622 3.70618C6.86141 3.63611 7.02975 3.59987 7.20003 3.59987C7.37031 3.59987 7.53864 3.63611 7.69383 3.70618L9.70626 1.69375C9.5907 1.43777 9.5686 1.14936 9.64379 0.878751C9.71898 0.608144 9.88671 0.372483 10.1178 0.212808C10.3488 0.0531316 10.6286 -0.0204432 10.9083 0.00489556C11.188 0.0302343 11.4499 0.152881 11.6485 0.351479C11.8471 0.550076 11.9698 0.812041 11.9951 1.09175C12.0205 1.37147 11.9469 1.65121 11.7872 1.88226C11.6275 2.11331 11.3919 2.28104 11.1213 2.35623C10.8507 2.43142 10.5623 2.40931 10.3063 2.29376L8.29384 4.30619C8.37631 4.48895 8.41167 4.68947 8.39669 4.88942C8.38171 5.08937 8.31686 5.28238 8.20808 5.45081C8.09929 5.61925 7.95003 5.75774 7.77394 5.85363C7.59785 5.94953 7.40054 5.99977 7.20003 5.99977C6.99952 5.99977 6.8022 5.94953 6.62611 5.85363C6.45002 5.75774 6.30076 5.61925 6.19198 5.45081C6.08319 5.28238 6.01835 5.08937 6.00336 4.88942C5.98838 4.68947 6.02374 4.48895 6.10621 4.30619L4.69379 2.89377C4.5386 2.96384 4.37027 3.00008 4.19998 3.00008C4.0297 3.00008 3.86137 2.96384 3.70618 2.89377L2.29376 4.30619Z" fill="white"/>
</svg>
