<svg width="16" height="18" viewBox="0 0 16 18" fill="none" xmlns="http://www.w3.org/2000/svg">
<path d="M8.00187 18C8.55873 18.0002 9.09651 17.8003 9.51421 17.4378C9.93192 17.0753 10.2008 16.5751 10.2704 16.0312C10.2899 15.8771 10.1596 15.75 10.0019 15.75H6.00188C5.84417 15.75 5.71388 15.8771 5.73331 16.0312C5.80292 16.5751 6.07182 17.0753 6.48953 17.4378C6.90724 17.8003 7.44501 18.0002 8.00187 18ZM2.28761 5.625C2.28761 4.13316 2.88965 2.70242 3.96128 1.64752C5.03291 0.592632 6.48636 0 8.00187 0C9.51739 0 10.9708 0.592632 12.0425 1.64752C13.1141 2.70242 13.7161 4.13316 13.7161 5.625V8.94038C13.7161 8.99738 13.7321 9.0495 13.7641 9.09675L15.7104 11.9711C15.8839 12.2284 15.9833 12.5271 15.9981 12.8355C16.0129 13.1439 15.9425 13.4505 15.7945 13.7227C15.6464 13.9949 15.4262 14.2226 15.1572 14.3814C14.8883 14.5403 14.5806 14.6245 14.267 14.625H1.73676C1.42245 14.6257 1.11386 14.5423 0.844028 14.3836C0.5742 14.225 0.353303 13.997 0.204998 13.7242C0.0566917 13.4515 -0.0134362 13.1441 0.00212512 12.8351C0.0176864 12.526 0.118351 12.227 0.293336 11.97L2.23961 9.09675C2.27037 9.05017 2.28702 8.99593 2.28761 8.94038V5.625ZM8.00187 1.6875C6.94101 1.6875 5.9236 2.10234 5.17346 2.84077C4.42332 3.57919 4.00189 4.58071 4.00189 5.625V8.94038C4.00189 9.32963 3.88532 9.70875 3.66589 10.0316L1.71962 12.9071L1.71619 12.9184L1.71733 12.9251C1.71733 12.9274 1.71885 12.9296 1.7219 12.9319L1.72876 12.9364L1.73676 12.9375H14.267L14.275 12.9364L14.2818 12.9319L14.2864 12.9251L14.2876 12.9173L14.2841 12.906L12.3379 10.0328C12.1189 9.70959 12.002 9.32991 12.0019 8.9415V5.625C12.0019 4.58071 11.5804 3.57919 10.8303 2.84077C10.0801 2.10234 9.06273 1.6875 8.00187 1.6875Z" fill="white"/>
</svg>
