<svg width="29" height="28" viewBox="0 0 29 28" fill="none" xmlns="http://www.w3.org/2000/svg">
<path fill-rule="evenodd" clip-rule="evenodd" d="M3.62462 25.4504H7.45328L10.1117 20.1005L0.810143 1.61128L0 0H1.80031H8.20942H8.88454L9.19658 0.609105L12.5632 7.18924L10.4628 11.489L10.0877 7.25225L7.5343 2.22338H3.60062L11.345 17.619L19.7854 0.621107L20.0915 0H20.7786H27.0707H28.847L28.0668 1.59628L23.182 11.582L21.9338 9.09757L25.2944 2.22338H21.4657L18.8823 7.42028L28.1899 25.9155L29 27.5267H27.1997H20.7876H20.1125L19.8034 26.9176L16.4518 20.3195L18.5342 16.0318L18.9513 20.3465L21.4627 25.3034H25.3994L17.652 9.90471L9.13357 27.0527L8.82753 27.6738H8.1404H1.84832H0.0720095L0.852146 26.0775L5.73699 16.0918L6.9852 18.5762L3.62462 25.4504Z" fill="white"/>
</svg>
