<svg width="108" height="76" viewBox="0 0 108 76" fill="none" xmlns="http://www.w3.org/2000/svg">
<path d="M8.59004 47.7783L15.0204 44.0236C15.0204 44.0236 13.46 41.003 12.9834 37.2324C-0.382507 46.27 0.00112915 23.6949 0.00112915 23.6949L2.34151 27.4529C2.46364 42.7899 11.6493 35.2574 12.8785 34.1801C13.2257 29.0471 16.484 23.6592 28.2085 22.7912C28.2085 22.7912 36.7204 21.9304 44.6986 13.6408C44.6986 13.6408 67.967 -15.3678 88.9713 11.2208C88.9713 11.2208 94.0901 17.1756 95.2198 20.4557C95.2198 20.4557 102.861 19.5956 106.849 25.8983C106.849 25.8983 101.47 24.3431 100.516 25.2897C100.516 25.2897 108.413 29.0015 107.983 36.8595C107.983 36.8595 102.69 29.1738 97.4786 29.7791C97.4786 29.7791 96.6097 32.9727 94.9623 35.2171V38.3242C94.9623 38.3242 95.0492 40.1349 89.2355 40.4808C89.2355 40.4808 86.457 40.2214 86.1092 32.9688C86.1092 32.9688 85.4143 29.8616 82.377 31.5905C82.377 31.5905 73.946 38.4978 82.377 41.3436C86.0933 42.5971 97.1347 43.3292 96.0927 48.9408L87.4958 51.8743C87.4958 51.8743 87.9259 48.7672 85.5882 46.7855C85.5882 46.7855 77.3451 47.779 73.1761 46.7373C73.1761 46.7373 86.9741 51.2716 85.8085 59.4273H76.6946C76.6946 59.4273 78.9095 53.9933 73.5703 53.6031C73.5703 53.6031 63.5471 50.2392 58.5962 40.7851C58.5962 40.7851 44.5333 38.4563 31.127 54.25C31.127 54.25 29.826 60.9865 38.9399 63.7041C38.9399 63.7041 47.274 65.6495 47.274 72.374H37.6383C37.6383 72.374 40.375 67.715 34.1178 67.4588C34.1178 67.4588 19.5399 66.0317 20.967 61.7588C20.967 61.7588 20.5747 56.5815 17.9675 56.5815C17.9675 56.5815 11.5902 57.614 7.94421 70.8221C7.94421 70.8221 11.7229 72.8929 11.7229 76H2.21275C2.21275 76 -2.21313 67.1928 7.29308 52.4334L8.59004 47.7783Z" fill="white" fill-opacity="0.18"/>
</svg>
