<svg width="12" height="10" viewBox="0 0 12 10" fill="none" xmlns="http://www.w3.org/2000/svg">
<path fill-rule="evenodd" clip-rule="evenodd" d="M11.1758 8.82353C11.3257 8.8237 11.47 8.88111 11.579 8.98403C11.688 9.08695 11.7536 9.22762 11.7624 9.37729C11.7712 9.52696 11.7225 9.67434 11.6263 9.78931C11.53 9.90429 11.3935 9.97818 11.2446 9.99588L11.1758 10H0.587584C0.437654 9.99983 0.293447 9.94242 0.184426 9.8395C0.0754046 9.73658 0.00979833 9.59591 0.00101179 9.44624C-0.00777475 9.29657 0.0409216 9.14919 0.137151 9.03422C0.233381 8.91924 0.36988 8.84536 0.51876 8.82765L0.587584 8.82353H11.1758ZM9.99935 5.89812e-08C10.2962 -9.38701e-05 10.582 0.112004 10.7997 0.313822C11.0173 0.51564 11.1506 0.792262 11.1729 1.08824L11.1758 1.17647V7.05882C11.1759 7.35563 11.0638 7.64151 10.862 7.85915C10.6602 8.07678 10.3836 8.21009 10.0876 8.23235L9.99935 8.23529H1.76405C1.46724 8.23539 1.18137 8.12329 0.963732 7.92147C0.746096 7.71966 0.612786 7.44303 0.590525 7.14706L0.587584 7.05882V1.17647C0.58749 0.879661 0.699587 0.593784 0.901405 0.376148C1.10322 0.158512 1.37985 0.025202 1.67582 0.0029413L1.76405 5.89812e-08H9.99935ZM9.99935 1.17647H1.76405V7.05882H9.99935V1.17647Z" fill="white"/>
</svg>
