<svg width="17" height="17" viewBox="0 0 17 17" fill="none" xmlns="http://www.w3.org/2000/svg">
<path d="M3.77778 7.36667V3.77778H1.88889V4.72222C1.88889 5.32037 2.06204 5.85965 2.40834 6.34006C2.75463 6.82046 3.21111 7.16267 3.77778 7.36667ZM13.2222 7.36667C13.7889 7.16204 14.2454 6.81952 14.5917 6.33911C14.938 5.8587 15.1111 5.31974 15.1111 4.72222V3.77778H13.2222V7.36667ZM7.55556 15.1111V12.1833C6.78426 12.0102 6.09576 11.6837 5.49006 11.2039C4.88435 10.7242 4.43952 10.1219 4.15556 9.39722C2.975 9.25556 1.98743 8.7402 1.19283 7.85117C0.398241 6.96213 0.00062963 5.91915 0 4.72222V3.77778C0 3.25833 0.185111 2.81381 0.555334 2.44422C0.925556 2.07463 1.37008 1.88952 1.88889 1.88889H3.77778C3.77778 1.36944 3.96289 0.924926 4.33311 0.555333C4.70334 0.185741 5.14786 0.00062963 5.66667 0H11.3333C11.8528 0 12.2976 0.185111 12.6678 0.555333C13.0381 0.925556 13.2229 1.37007 13.2222 1.88889H15.1111C15.6306 1.88889 16.0754 2.074 16.4456 2.44422C16.8158 2.81444 17.0006 3.25896 17 3.77778V4.72222C17 5.91852 16.6024 6.9615 15.8072 7.85117C15.012 8.74083 14.0244 9.25619 12.8445 9.39722C12.5611 10.1213 12.1166 10.7235 11.5109 11.2039C10.9052 11.6844 10.2164 12.0108 9.44445 12.1833V15.1111H12.2778C12.5454 15.1111 12.7698 15.2018 12.9512 15.3831C13.1325 15.5644 13.2229 15.7886 13.2222 16.0556C13.2216 16.3225 13.1309 16.547 12.9502 16.7289C12.7695 16.9109 12.5454 17.0013 12.2778 17H4.72223C4.45463 17 4.23048 16.9093 4.04978 16.728C3.86908 16.5467 3.77841 16.3225 3.77778 16.0556C3.77715 15.7886 3.86782 15.5644 4.04978 15.3831C4.23174 15.2018 4.45589 15.1111 4.72223 15.1111H7.55556Z" fill="white"/>
</svg>
