<svg width="21" height="15" viewBox="0 0 21 15" fill="none" xmlns="http://www.w3.org/2000/svg">
<path d="M10.5 0C11.4051 0 12.273 0.354217 12.913 0.984727C13.553 1.61524 13.9125 2.47039 13.9125 3.36207C13.9125 4.25375 13.553 5.1089 12.913 5.73941C12.273 6.36992 11.4051 6.72414 10.5 6.72414C9.59495 6.72414 8.72697 6.36992 8.087 5.73941C7.44703 5.1089 7.0875 4.25375 7.0875 3.36207C7.0875 2.47039 7.44703 1.61524 8.087 0.984727C8.72697 0.354217 9.59495 0 10.5 0ZM3.15 2.32759C3.46025 2.32759 3.76746 2.38779 4.05409 2.50476C4.34072 2.62174 4.60116 2.79318 4.82054 3.00932C5.03992 3.22546 5.21394 3.48205 5.33267 3.76444C5.45139 4.04684 5.5125 4.34951 5.5125 4.65517C5.5125 4.96083 5.45139 5.2635 5.33267 5.5459C5.21394 5.8283 5.03992 6.08489 4.82054 6.30102C4.60116 6.51716 4.34072 6.68861 4.05409 6.80558C3.76746 6.92255 3.46025 6.98276 3.15 6.98276C2.83975 6.98276 2.53254 6.92255 2.24591 6.80558C1.95928 6.68861 1.69884 6.51716 1.47946 6.30102C1.26008 6.08489 1.08606 5.8283 0.967335 5.5459C0.848608 5.2635 0.7875 4.96083 0.7875 4.65517C0.7875 4.34951 0.848608 4.04684 0.967335 3.76444C1.08606 3.48205 1.26008 3.22546 1.47946 3.00932C1.69884 2.79318 1.95928 2.62174 2.24591 2.50476C2.53254 2.38779 2.83975 2.32759 3.15 2.32759ZM0 12.931C0 10.6455 1.88016 8.7931 4.2 8.7931C4.62 8.7931 5.02687 8.85453 5.41078 8.96767C4.33125 10.1573 3.675 11.7284 3.675 13.4483V13.9655C3.675 14.3341 3.75375 14.6832 3.89484 15H1.05C0.469219 15 0 14.5377 0 13.9655V12.931ZM17.1052 15C17.2462 14.6832 17.325 14.3341 17.325 13.9655V13.4483C17.325 11.7284 16.6687 10.1573 15.5892 8.96767C15.9731 8.85453 16.38 8.7931 16.8 8.7931C19.1198 8.7931 21 10.6455 21 12.931V13.9655C21 14.5377 20.5308 15 19.95 15H17.1052ZM15.4875 4.65517C15.4875 4.03786 15.7364 3.44583 16.1795 3.00932C16.6225 2.57281 17.2234 2.32759 17.85 2.32759C18.4766 2.32759 19.0775 2.57281 19.5205 3.00932C19.9636 3.44583 20.2125 4.03786 20.2125 4.65517C20.2125 5.27249 19.9636 5.86452 19.5205 6.30102C19.0775 6.73753 18.4766 6.98276 17.85 6.98276C17.2234 6.98276 16.6225 6.73753 16.1795 6.30102C15.7364 5.86452 15.4875 5.27249 15.4875 4.65517ZM5.25 13.4483C5.25 10.5905 7.59937 8.27586 10.5 8.27586C13.4006 8.27586 15.75 10.5905 15.75 13.4483V13.9655C15.75 14.5377 15.2808 15 14.7 15H6.3C5.71922 15 5.25 14.5377 5.25 13.9655V13.4483Z" fill="white"/>
</svg>
