<svg width="17" height="17" viewBox="0 0 17 17" fill="none" xmlns="http://www.w3.org/2000/svg">
<path d="M7.64998 12.75H9.34998V7.64998H7.64998V12.75ZM8.49998 5.94999C8.74081 5.94999 8.94283 5.86839 9.10603 5.70519C9.26923 5.54199 9.35054 5.34025 9.34998 5.09999C9.34941 4.85972 9.26781 4.65799 9.10518 4.49479C8.94255 4.33159 8.74081 4.24999 8.49998 4.24999C8.25915 4.24999 8.05741 4.33159 7.89478 4.49479C7.73215 4.65799 7.65055 4.85972 7.64998 5.09999C7.64942 5.34025 7.73102 5.54227 7.89478 5.70604C8.05855 5.8698 8.26028 5.95112 8.49998 5.94999ZM8.49998 17C7.32415 17 6.21915 16.7767 5.18499 16.3302C4.15083 15.8836 3.25124 15.2781 2.48625 14.5137C1.72125 13.7493 1.11577 12.8497 0.6698 11.815C0.223834 10.7802 0.000567741 9.67524 1.07595e-06 8.49998C-0.000565589 7.32472 0.222701 6.21972 0.6698 5.18499C1.1169 4.15026 1.72238 3.25068 2.48625 2.48624C3.25011 1.72181 4.14969 1.11633 5.18499 0.669798C6.22029 0.223266 7.32528 0 8.49998 0C9.67468 0 10.7797 0.223266 11.815 0.669798C12.8503 1.11633 13.7499 1.72181 14.5137 2.48624C15.2776 3.25068 15.8833 4.15026 16.331 5.18499C16.7787 6.21972 17.0017 7.32472 17 8.49998C16.9983 9.67524 16.775 10.7802 16.3302 11.815C15.8853 12.8497 15.2798 13.7493 14.5137 14.5137C13.7476 15.2781 12.848 15.8839 11.815 16.331C10.7819 16.7781 9.67694 17.0011 8.49998 17ZM8.49998 15.3C10.3983 15.3 12.0062 14.6412 13.3237 13.3237C14.6412 12.0062 15.3 10.3983 15.3 8.49998C15.3 6.60165 14.6412 4.99374 13.3237 3.67624C12.0062 2.35874 10.3983 1.7 8.49998 1.7C6.60165 1.7 4.99374 2.35874 3.67624 3.67624C2.35875 4.99374 1.7 6.60165 1.7 8.49998C1.7 10.3983 2.35875 12.0062 3.67624 13.3237C4.99374 14.6412 6.60165 15.3 8.49998 15.3Z" fill="white" fill-opacity="0.75"/>
</svg>
